<svg xmlns="http://www.w3.org/2000/svg" style="display: none;">
  <!-- Owl Logo Symbol -->
  <symbol id="icon-owl-logo" viewBox="0 0 32 32" fill="currentColor">
    <path d="M6 13 L8 7 L14 11 L18 11 L24 7 L26 13 Z" fill="#2a2a35"/>
    <circle cx="11" cy="15.5" r="4.5" fill="#2a2a35"/>
    <circle cx="21" cy="15.5" r="4.5" fill="#2a2a35"/>
    <circle cx="11" cy="15.5" r="2.5" fill="#ffffff"/>
    <circle cx="21" cy="15.5" r="2.5" fill="#ffffff"/>
    <circle cx="11" cy="15.5" r="1.2" fill="#1e1e24"/>
    <circle cx="21" cy="15.5" r="1.2" fill="#1e1e24"/>
    <path d="M14 16.5 L14 21.5 L19.5 19 Z" fill="#3b82f6"/>
  </symbol>

  <!-- Clean Play Transport Control -->
  <symbol id="icon-play" viewBox="0 0 24 24" fill="currentColor">
    <path d="M8 5v14l11-7z"/>
  </symbol>

  <!-- Clean Pause Transport Control -->
  <symbol id="icon-pause" viewBox="0 0 24 24" fill="currentColor">
    <path d="M6 19h4V5H6v14zm8-14v14h4V5h-4z"/>
  </symbol>

  <!-- PWA Compatible Upload Cloud -->
  <symbol id="icon-upload" viewBox="0 0 24 24" fill="currentColor">
    <path d="M19.35 10.04C18.67 6.59 15.64 4 12 4 9.11 4 6.6 5.64 5.35 8.04 2.34 8.36 0 10.91 0 14c0 3.31 2.69 6 6 6h13c2.76 0 5-2.24 5-5 0-2.64-2.05-4.78-4.65-4.96zM14 13v4h-4v-4H7l5-5 5 5h-3z"/>
  </symbol>

  <!-- Bookmark Status Flag -->
  <symbol id="icon-bookmark" viewBox="0 0 24 24" fill="currentColor">
    <path d="M17 3H7c-1.1 0-1.99.9-1.99 2L5 21l7-3 7 3V5c0-1.1-.9-2-2-2z"/>
  </symbol>
</svg>
