<svg xmlns="http://www.w3.org/2000/svg" style="display: none;">
  <!-- Play Icon -->
  <symbol id="icon-play" viewBox="0 0 24 24" fill="currentColor">
    <path d="M8 5v14l11-7z"/>
  </symbol>

  <!-- Pause Icon -->
  <symbol id="icon-pause" viewBox="0 0 24 24" fill="currentColor">
    <path d="M6 19h4V5H6v14zm8-14v14h4V5h-4z"/>
  </symbol>

  <!-- Upload Icon -->
  <symbol id="icon-upload" viewBox="0 0 24 24" fill="currentColor">
    <path d="M19.35 10.04C18.67 6.59 15.64 4 12 4 9.11 4 6.6 5.64 5.35 8.04 2.34 8.36 0 10.91 0 14c0 3.31 2.69 6 6 6h13c2.76 0 5-2.24 5-5 0-2.64-2.05-4.78-4.65-4.96zM14 13v4h-4v-4H7l5-5 5 5h-3z"/>
  </symbol>

  <!-- Bookmark Icon (For visually indicating saved status) -->
  <symbol id="icon-bookmark" viewBox="0 0 24 24" fill="currentColor">
    <path d="M17 3H7c-1.1 0-1.99.9-1.99 2L5 21l7-3 7 3V5c0-1.1-.9-2-2-2z"/>
  </symbol>

  <!-- History/Resume Clock Icon -->
  <symbol id="icon-history" viewBox="0 0 24 24" fill="none" stroke="currentColor" stroke-width="2" stroke-linecap="round" stroke-linejoin="round">
    <path d="M3 12a9 9 0 1 0 9-9 9.75 9.75 0 0 0-6.74 2.74L3 8"/>
    <path d="M3 3v5h5"/>
    <path d="M12 7v5l4 2"/>
  </symbol>
</svg>
